<?xml version="1.0" encoding="UTF-8" standalone="no"?>
<!-- Created with Inkscape (http://www.inkscape.org/) -->
<svg
   xmlns:svg="http://www.w3.org/2000/svg"
   xmlns="http://www.w3.org/2000/svg"
   version="1.0"
   width="580"
   height="115"
   id="svg2546">
  <defs
     id="defs2548">
    <clipPath
       id="clipPath2717">
      <path
         d="M 25.028,71.008 L 280.146,71.008 L 280.146,7.228 L 25.028,7.228 L 25.028,71.008 z"
         id="path2719" />
    </clipPath>
  </defs>
  <g
     transform="matrix(2.5,0,0,-2.5,-88.56375,158.90375)"
     clip-path="url(#clipPath2717)"
     id="g2715">
    <path
       d="M 244.195,19.928 C 255.59,19.928 264.829,29.167 264.829,40.562 C 264.829,51.957 255.59,61.195 244.195,61.195 C 232.8,61.195 223.562,51.957 223.562,40.562 C 223.562,29.167 232.8,19.928 244.195,19.928"
       id="path2721"
       style="fill:#67cb33;fill-opacity:1;fill-rule:nonzero;stroke:none" />
    <path
       d="M 254.105,41.343 C 253.754,41.31 253.393,41.252 253.03,41.169 C 253.155,39.414 253.076,36.638 252.656,34.31 C 253.202,34.468 253.728,34.639 254.237,34.84 C 254.574,36.363 254.904,39.66 254.934,41.369 C 254.583,41.367 254.295,41.361 254.105,41.343"
       id="path2723"
       style="fill:#ffffff;fill-opacity:1;fill-rule:nonzero;stroke:none" />
    <path
       d="M 255.35,41.371 C 255.388,39.719 255.251,37.006 254.923,35.134 C 255.485,35.396 256.028,35.707 256.555,36.087 C 256.8,37.304 257.13,39.985 257.174,41.406 C 256.514,41.376 255.882,41.372 255.35,41.371"
       id="path2725"
       style="fill:#ffffff;fill-opacity:1;fill-rule:nonzero;stroke:none" />
    <path
       d="M 250.669,40.216 C 250.786,38.428 250.845,36.121 250.354,33.692 C 251.079,33.852 251.266,33.926 251.915,34.104 C 252.32,35.642 252.655,39.223 252.643,41.073 C 251.961,40.884 251.283,40.603 250.669,40.216"
       id="path2727"
       style="fill:#ffffff;fill-opacity:1;fill-rule:nonzero;stroke:none" />
    <path
       d="M 257.596,41.429 C 257.58,40.373 257.434,38.016 257.196,36.593 C 257.72,37.043 258.229,37.578 258.729,38.221 C 258.958,39.257 259.209,40.935 259.236,41.608 C 258.705,41.518 258.147,41.463 257.596,41.429"
       id="path2729"
       style="fill:#ffffff;fill-opacity:1;fill-rule:nonzero;stroke:none" />
    <path
       d="M 248.329,33.965 C 248.427,33.49 248.99,33.409 249.63,33.528 C 250.069,34.846 250.284,38.016 250.308,39.968 C 248.747,38.823 247.718,36.909 248.329,33.965"
       id="path2731"
       style="fill:#ffffff;fill-opacity:1;fill-rule:nonzero;stroke:none" />
    <path
       d="M 261.035,42.149 C 260.641,41.947 260.163,41.799 259.648,41.689 C 259.633,41.061 259.537,40.023 259.434,39.21 C 259.974,40.035 260.506,41.002 261.035,42.149"
       id="path2733"
       style="fill:#ffffff;fill-opacity:1;fill-rule:nonzero;stroke:none" />
    <path
       d="M 259.904,37.168 C 260.788,37.246 261.551,37.252 262.28,37.2 C 262.289,37.847 262.271,38.524 262.209,39.247 C 261.669,39.062 261.194,38.865 260.854,38.673 C 260.384,38.408 260.183,38.957 260.891,39.259 C 261.344,39.452 261.76,39.603 262.155,39.726 C 262.074,40.489 261.962,41.284 261.795,42.132 C 261.749,42.371 261.583,42.253 261.476,42.025 C 256.746,32.019 252.57,34.44 244.721,30.893 C 246.824,34.243 247.71,40.561 247.71,40.561 C 250.183,40.919 252.108,42.241 253.269,44.053 C 251.668,43.433 249.952,42.65 248.767,41.767 C 248.208,41.35 247.953,41.944 248.758,42.528 C 250.181,43.558 252.015,44.173 253.602,44.626 C 254.155,45.679 254.467,46.866 254.502,48.109 C 252.598,47.204 250.545,46.063 248.834,44.498 C 248.32,44.027 247.898,44.59 248.657,45.233 C 250.462,46.761 252.76,47.881 254.502,48.571 C 254.474,49.641 254.24,50.745 253.779,51.832 C 252.239,50.751 250.443,49.546 248.724,47.467 C 248.279,46.93 247.784,47.417 248.435,48.169 C 249.945,49.915 252.055,51.289 253.598,52.233 C 253.192,53.081 252.644,53.915 251.945,54.712 C 250.651,53.502 249.576,52.567 248.099,50.173 C 247.733,49.579 247.169,49.939 247.719,50.768 C 249.024,52.733 250.339,53.965 251.641,55.047 C 251.061,55.659 250.388,56.247 249.617,56.799 C 248.655,55.627 247.662,54.3 247.062,52.638 C 246.837,52.014 246.236,52.289 246.658,53.169 C 247.488,54.903 248.328,55.995 249.28,57.036 C 248.642,57.468 247.941,57.875 247.174,58.254 C 246.642,57.147 246.216,56.048 246.06,55.287 C 245.926,54.637 245.308,54.781 245.597,55.68 C 245.946,56.762 246.413,57.647 246.851,58.409 C 246.284,58.676 245.683,58.927 245.046,59.16 C 244.896,58.436 244.806,57.754 244.801,57.271 C 244.796,56.703 244.212,56.79 244.309,57.595 C 244.383,58.208 244.516,58.784 244.658,59.3 C 244.032,59.518 243.375,59.719 242.682,59.901 C 242.25,60.015 242.111,59.75 242.132,59.743 C 242.085,58.835 251.689,47.303 241.889,31.243 C 240.11,36.12 232.623,31.37 226.932,44.926 C 226.843,45.141 226.656,44.881 226.519,44.581 C 226.215,43.919 225.968,43.264 225.768,42.619 C 226.394,42.405 227.233,42.092 227.848,41.763 C 228.527,41.4 228.279,40.871 227.834,41.176 C 227.393,41.478 226.47,41.876 225.649,42.196 C 225.409,41.338 225.251,40.498 225.178,39.687 C 226.135,39.784 227.564,39.804 228.811,39.67 C 229.75,39.569 229.629,38.945 228.981,39.088 C 228.134,39.275 226.535,39.298 225.151,39.234 C 225.099,38.306 225.15,37.417 225.292,36.578 C 226.469,36.971 228.448,37.516 230.161,37.602 C 231.106,37.649 231.18,36.936 230.518,36.976 C 229.476,37.038 226.972,36.534 225.367,36.146 C 225.587,35.091 225.952,34.127 226.428,33.274 C 227.58,34.021 229.782,35.291 231.601,35.842 C 232.552,36.13 232.81,35.421 232.124,35.293 C 231.014,35.085 228.235,33.73 226.655,32.892 C 227.177,32.056 227.81,31.343 228.526,30.781 C 229.838,31.954 231.433,33.344 233.576,34.291 C 234.486,34.693 234.816,34.055 234.162,33.81 C 232.846,33.317 231.773,32.755 228.885,30.51 C 229.614,30.009 230.416,29.661 231.261,29.489 C 232.485,30.655 234.104,32.118 236.011,33.042 C 236.906,33.476 237.272,32.816 236.614,32.582 C 235.493,32.183 233.334,30.639 231.782,29.409 C 233.865,29.168 236.157,29.992 238.226,32.277 C 243.253,29.741 240.672,25.612 235.19,27.091 C 232.567,27.798 230.861,26.155 231.02,25.572 C 231.08,25.483 231.028,25.542 231.359,25.669 C 232.142,25.966 232.775,26.249 234.391,25.897 C 236.477,25.294 236.97,25.05 239.036,25.498 C 237.405,23.826 237.921,21.701 239.944,21.044 C 240.363,20.908 240.496,21.099 239.873,21.785 C 238.998,22.75 239.41,23.92 240.739,24.887 C 241.142,22.683 243.942,22.409 246.946,23.669 C 250.049,24.972 250.885,26.015 255.486,24.549 C 255.992,24.153 256.247,24.476 255.881,24.817 C 253.739,26.693 250.826,26.781 247.162,25.608 C 240.906,23.603 241.422,28.258 248.982,30.946 C 250.137,28.856 252.687,27.645 255.249,27.805 C 253.82,29.113 252.047,30.516 251.035,30.928 C 250.563,31.12 250.874,31.794 251.669,31.345 C 253.4,30.368 254.742,29.068 255.832,27.865 C 256.764,28 257.681,28.329 258.521,28.863 C 257.042,30.055 255.031,31.563 253.983,31.933 C 253.529,32.093 253.836,32.771 254.594,32.383 C 256.258,31.531 257.784,30.206 258.916,29.128 C 259.626,29.653 260.266,30.344 260.794,31.214 C 259.321,32.062 257.52,32.906 256.501,33.153 C 255.823,33.316 256.117,34.011 257.053,33.673 C 258.655,33.095 259.973,32.359 261.027,31.635 C 261.421,32.376 261.736,33.233 261.953,34.216 C 260.606,34.623 259.23,34.918 258.345,34.943 C 257.683,34.961 257.819,35.665 258.755,35.536 C 260.098,35.351 261.129,35.061 262.059,34.707 C 262.173,35.348 262.249,36.036 262.277,36.778 C 261.292,36.772 260.387,36.698 259.732,36.586 C 259.24,36.501 259.094,37.095 259.904,37.168"
       id="path2735"
       style="fill:#ffffff;fill-opacity:1;fill-rule:nonzero;stroke:none" />
    <path
       d="M 244.558,53.019 C 243.462,53.84 241.397,54.969 240.192,55.432 C 239.992,55.137 239.786,54.865 239.576,54.639 C 239.246,54.284 238.951,53.925 238.679,53.566 C 240.571,52.944 243.344,51.791 245.114,50.787 C 244.959,51.563 244.773,52.307 244.558,53.019"
       id="path2737"
       style="fill:#ffffff;fill-opacity:1;fill-rule:nonzero;stroke:none" />
    <path
       d="M 244.241,40.63 C 244.804,40.595 244.979,40.925 245.124,41.67 C 243.38,42.649 239.818,44.072 237.448,44.67 C 238.661,42.405 241.12,40.821 244.241,40.63"
       id="path2739"
       style="fill:#ffffff;fill-opacity:1;fill-rule:nonzero;stroke:none" />
    <path
       d="M 241.996,59.156 C 241.841,58.729 241.668,58.291 241.481,57.858 C 241.909,57.635 242.512,57.347 243.001,57.059 C 242.667,57.787 242.327,58.486 241.996,59.156"
       id="path2741"
       style="fill:#ffffff;fill-opacity:1;fill-rule:nonzero;stroke:none" />
    <path
       d="M 236.629,48.293 C 238.46,47.951 243.19,46.23 245.523,45.044 C 245.558,45.714 245.558,46.357 245.54,46.986 C 243.973,47.953 239.71,49.923 237.121,50.741 C 236.821,49.908 236.661,49.086 236.629,48.293"
       id="path2743"
       style="fill:#ffffff;fill-opacity:1;fill-rule:nonzero;stroke:none" />
    <path
       d="M 237.197,45.189 C 239.358,44.716 243.159,43.371 245.238,42.338 C 245.239,42.342 245.239,42.345 245.24,42.349 C 245.346,43.025 245.414,43.675 245.466,44.313 C 243.842,45.212 239.118,47.247 236.626,47.805 C 236.65,46.878 236.847,45.997 237.197,45.189"
       id="path2745"
       style="fill:#ffffff;fill-opacity:1;fill-rule:nonzero;stroke:none" />
    <path
       d="M 243.41,56.136 C 242.913,56.539 241.91,57.136 241.331,57.522 C 241.054,56.911 240.751,56.324 240.429,55.8 C 241.262,55.453 243.151,54.643 244.267,53.922 C 244.003,54.694 243.713,55.429 243.41,56.136"
       id="path2747"
       style="fill:#ffffff;fill-opacity:1;fill-rule:nonzero;stroke:none" />
    <path
       d="M 245.257,50.01 C 243.908,50.847 240.462,52.452 238.431,53.224 C 237.942,52.529 237.558,51.832 237.272,51.14 C 239.182,50.611 243.322,48.975 245.509,47.755 C 245.461,48.536 245.375,49.288 245.257,50.01"
       id="path2749"
       style="fill:#ffffff;fill-opacity:1;fill-rule:nonzero;stroke:none" />
    <path
       d="M 238.641,53.579 L 238.415,53.23 C 238.42,53.228 238.426,53.226 238.431,53.224 C 238.512,53.338 238.593,53.452 238.679,53.566 C 238.667,53.57 238.654,53.575 238.641,53.579"
       id="path2751"
       style="fill:#ffffff;fill-opacity:1;fill-rule:nonzero;stroke:none" />
    <path
       d="M 235.903,43.541 C 235.159,43.808 234.412,43.948 233.779,44.021 C 233.799,42.16 234.201,37.845 234.582,36.314 C 235.02,36.077 235.453,35.875 235.879,35.7 C 235.564,39.753 235.719,41.677 235.903,43.541"
       id="path2753"
       style="fill:#ffffff;fill-opacity:1;fill-rule:nonzero;stroke:none" />
    <path
       d="M 238.234,42.053 C 237.681,42.653 237.014,43.077 236.324,43.375 C 236.179,41.334 236.272,36.837 236.624,35.557 C 236.632,35.526 236.648,35.466 236.664,35.403 C 237.071,35.261 237.47,35.139 237.858,35.029 C 237.707,37.511 237.966,40.193 238.234,42.053"
       id="path2755"
       style="fill:#ffffff;fill-opacity:1;fill-rule:nonzero;stroke:none" />
    <path
       d="M 229.547,44.316 C 229.683,43.523 230.059,41.003 230.521,39.754 C 230.946,39.233 231.374,38.769 231.803,38.357 C 231.47,40.033 231.191,43.221 231.127,44.178 C 230.627,44.209 230.076,44.254 229.547,44.316"
       id="path2757"
       style="fill:#ffffff;fill-opacity:1;fill-rule:nonzero;stroke:none" />
    <path
       d="M 238.611,41.587 C 238.422,39.651 238.308,36.286 238.534,34.822 C 238.832,34.758 239.143,34.754 239.204,34.999 C 239.996,38.183 239.565,40.245 238.611,41.587"
       id="path2759"
       style="fill:#ffffff;fill-opacity:1;fill-rule:nonzero;stroke:none" />
    <path
       d="M 233.37,44.061 C 233.05,44.088 232.77,44.1 232.556,44.108 C 232.308,44.116 231.946,44.131 231.526,44.154 C 231.694,42.792 232.033,39.245 232.623,37.632 C 233.029,37.301 233.433,37.01 233.834,36.754 C 233.423,39.317 233.334,42.292 233.37,44.061"
       id="path2761"
       style="fill:#ffffff;fill-opacity:1;fill-rule:nonzero;stroke:none" />
    <path
       d="M 227.474,44.762 C 228.229,43.14 229.011,41.802 229.806,40.69 C 229.57,41.529 229.326,43.634 229.196,44.359 C 228.485,44.455 227.846,44.584 227.474,44.762"
       id="path2763"
       style="fill:#ffffff;fill-opacity:1;fill-rule:nonzero;stroke:none" />
    <path
       d="M 49.358,39.69 L 46.651,39.69 L 47.835,45.887 L 41.892,45.887 L 40.729,39.69 L 38.022,39.69 L 40.729,53.967 L 43.436,53.967 L 42.336,48.256 L 48.28,48.256 L 49.358,53.967 L 52.065,53.967 L 49.358,39.69 z"
       id="path2765"
       style="fill:#000000;fill-opacity:1;fill-rule:nonzero;stroke:none" />
    <path
       d="M 58.918,48.108 C 56.951,48.108 55.766,45.76 55.766,43.667 C 55.766,42.525 56.232,41.806 57.458,41.806 C 59.341,41.806 60.652,43.899 60.652,46.247 C 60.652,47.453 60.144,48.108 58.918,48.108 M 57.099,39.479 C 54.159,39.479 52.996,40.875 52.996,43.244 C 52.996,47.643 55.936,50.414 59.32,50.414 C 62.323,50.414 63.444,48.806 63.444,46.585 C 63.444,42.25 60.398,39.479 57.099,39.479"
       id="path2767"
       style="fill:#000000;fill-opacity:1;fill-rule:nonzero;stroke:none" />
    <path
       d="M 73.236,47.812 C 72.771,48.024 72.242,48.129 71.608,48.129 C 69.408,48.129 68.393,45.676 68.393,43.709 C 68.393,42.715 68.816,41.848 70.254,41.848 C 70.931,41.848 71.65,41.996 72.221,42.25 L 71.988,39.902 C 71.269,39.648 70.381,39.479 69.472,39.479 C 66.659,39.479 65.58,40.917 65.58,43.117 C 65.58,47.135 67.949,50.414 71.777,50.414 C 72.538,50.414 73.215,50.308 73.871,50.138 L 73.236,47.812 z"
       id="path2769"
       style="fill:#000000;fill-opacity:1;fill-rule:nonzero;stroke:none" />
    <path
       d="M 84.023,39.69 L 81.358,39.69 L 82.627,46.289 C 82.88,47.579 82.669,48.108 81.992,48.108 C 80.575,48.108 78.671,44.809 78.206,42.355 L 77.699,39.69 L 75.055,39.69 L 77.995,55.13 L 80.638,55.13 L 79.814,50.688 C 79.623,49.758 79.306,48.7 78.671,46.945 L 78.714,46.924 C 79.666,48.806 81.125,50.435 83.134,50.435 C 85.165,50.435 85.778,48.997 85.397,46.945 L 84.023,39.69 z"
       id="path2771"
       style="fill:#000000;fill-opacity:1;fill-rule:nonzero;stroke:none" />
    <path
       d="M 94.555,48.193 C 94.09,48.341 93.603,48.404 93.138,48.404 C 92.038,48.404 91.509,47.96 91.509,47.283 C 91.509,45.993 94.238,45.38 94.238,43.053 C 94.238,41.298 92.715,39.479 89.437,39.479 C 88.739,39.479 88.125,39.542 87.597,39.627 L 88.083,41.911 C 88.57,41.742 89.162,41.615 89.691,41.615 C 90.769,41.615 91.446,42.038 91.446,42.8 C 91.446,44.217 88.739,44.534 88.739,47.008 C 88.739,48.933 90.24,50.414 93.265,50.414 C 93.942,50.414 94.513,50.371 95.041,50.265 L 94.555,48.193 z"
       id="path2773"
       style="fill:#000000;fill-opacity:1;fill-rule:nonzero;stroke:none" />
    <path
       d="M 104.75,47.812 C 104.284,48.024 103.755,48.129 103.121,48.129 C 100.921,48.129 99.906,45.676 99.906,43.709 C 99.906,42.715 100.329,41.848 101.767,41.848 C 102.444,41.848 103.163,41.996 103.734,42.25 L 103.501,39.902 C 102.783,39.648 101.894,39.479 100.985,39.479 C 98.172,39.479 97.093,40.917 97.093,43.117 C 97.093,47.135 99.462,50.414 103.29,50.414 C 104.051,50.414 104.728,50.308 105.384,50.138 L 104.75,47.812 z"
       id="path2775"
       style="fill:#000000;fill-opacity:1;fill-rule:nonzero;stroke:none" />
    <path
       d="M 115.536,39.69 L 112.871,39.69 L 114.14,46.289 C 114.394,47.579 114.182,48.108 113.505,48.108 C 112.088,48.108 110.185,44.809 109.72,42.355 L 109.212,39.69 L 106.568,39.69 L 109.508,55.13 L 112.152,55.13 L 111.327,50.688 C 111.137,49.758 110.819,48.7 110.185,46.945 L 110.227,46.924 C 111.179,48.806 112.638,50.435 114.647,50.435 C 116.678,50.435 117.291,48.997 116.91,46.945 L 115.536,39.69 z"
       id="path2777"
       style="fill:#000000;fill-opacity:1;fill-rule:nonzero;stroke:none" />
    <path
       d="M 129.346,44.703 C 129.071,43.265 128.649,40.959 128.437,39.69 L 125.857,39.69 C 125.962,40.325 126.216,41.298 126.787,42.947 L 126.745,42.969 C 125.793,41.086 124.334,39.458 122.325,39.458 C 120.294,39.458 119.681,40.896 120.062,42.947 L 121.458,50.202 L 124.101,50.202 L 122.832,43.603 C 122.599,42.313 122.79,41.784 123.467,41.784 C 124.884,41.784 126.787,45.084 127.253,47.537 L 127.76,50.202 L 130.404,50.202 L 129.346,44.703 z"
       id="path2779"
       style="fill:#000000;fill-opacity:1;fill-rule:nonzero;stroke:none" />
    <path
       d="M 134.951,39.69 L 132.307,39.69 L 135.247,55.13 L 137.891,55.13 L 134.951,39.69 z"
       id="path2781"
       style="fill:#000000;fill-opacity:1;fill-rule:nonzero;stroke:none" />
    <path
       d="M 144.68,48.425 C 143.305,48.425 142.438,47.156 142.057,45.782 C 144.489,45.866 145.759,46.374 145.759,47.495 C 145.759,48.087 145.357,48.425 144.68,48.425 M 141.761,43.984 C 141.74,43.751 141.698,43.392 141.698,43.159 C 141.698,41.953 142.163,41.594 143.622,41.594 C 144.638,41.594 145.716,41.827 146.689,42.229 L 146.689,40.156 C 145.526,39.712 144.151,39.479 142.755,39.479 C 140.09,39.479 139.033,40.706 139.033,43.032 C 139.033,47.431 141.698,50.414 144.976,50.414 C 147.578,50.414 148.381,49.123 148.381,47.854 C 148.381,45.337 145.885,44.111 141.761,43.984"
       id="path2783"
       style="fill:#000000;fill-opacity:1;fill-rule:nonzero;stroke:none" />
    <path
       d="M 165.639,51.64 L 160.859,51.64 L 160.161,47.96 L 164.687,47.96 L 164.243,45.697 L 159.738,45.697 L 158.596,39.69 L 155.889,39.69 L 158.596,53.967 L 166.083,53.967 L 165.639,51.64 z"
       id="path2785"
       style="fill:#000000;fill-opacity:1;fill-rule:nonzero;stroke:none" />
    <path
       d="M 176.276,44.703 C 176.002,43.265 175.578,40.959 175.367,39.69 L 172.787,39.69 C 172.892,40.325 173.146,41.298 173.717,42.947 L 173.675,42.969 C 172.723,41.086 171.264,39.458 169.255,39.458 C 167.224,39.458 166.611,40.896 166.991,42.947 L 168.388,50.202 L 171.031,50.202 L 169.762,43.603 C 169.53,42.313 169.72,41.784 170.397,41.784 C 171.814,41.784 173.717,45.084 174.183,47.537 L 174.69,50.202 L 177.334,50.202 L 176.276,44.703 z"
       id="path2787"
       style="fill:#000000;fill-opacity:1;fill-rule:nonzero;stroke:none" />
    <path
       d="M 181.881,39.69 L 179.237,39.69 L 182.177,55.13 L 184.821,55.13 L 181.881,39.69 z"
       id="path2789"
       style="fill:#000000;fill-opacity:1;fill-rule:nonzero;stroke:none" />
    <path
       d="M 192.202,48.277 C 189.77,48.277 188.649,45.443 188.649,43.244 C 188.649,42.207 188.924,41.784 189.453,41.784 C 190.954,41.784 192.837,45.232 193.259,47.453 L 193.387,48.129 C 193.048,48.214 192.667,48.277 192.202,48.277 M 195.142,43.476 C 194.931,42.313 194.634,40.663 194.465,39.69 L 191.864,39.69 C 192.012,40.515 192.35,41.573 192.837,43.032 L 192.794,43.032 C 191.948,41.488 190.489,39.458 188.395,39.458 C 186.788,39.458 185.92,40.494 185.92,42.736 C 185.92,46.712 188.057,50.392 192.667,50.392 C 193.027,50.392 193.344,50.371 193.788,50.308 L 194.698,55.13 L 197.363,55.13 L 195.142,43.476 z"
       id="path2791"
       style="fill:#000000;fill-opacity:1;fill-rule:nonzero;stroke:none" />
    <path
       d="M 204.723,48.277 C 202.291,48.277 201.169,45.443 201.169,43.244 C 201.169,42.207 201.445,41.784 201.973,41.784 C 203.475,41.784 205.357,45.232 205.78,47.453 L 205.907,48.129 C 205.569,48.214 205.188,48.277 204.723,48.277 M 206.986,39.69 L 204.363,39.69 C 204.554,40.515 204.871,41.573 205.357,43.032 L 205.315,43.032 C 204.469,41.488 203.01,39.458 200.916,39.458 C 199.308,39.458 198.441,40.494 198.441,42.736 C 198.441,46.712 200.577,50.392 205.188,50.392 C 206.457,50.392 207.726,50.308 208.91,50.075 C 207.98,45.19 207.43,42.461 206.986,39.69"
       id="path2793"
       style="fill:#000000;fill-opacity:1;fill-rule:nonzero;stroke:none" />
    <path
       d="M 76.302,26.688 C 75.931,24.708 74.738,23.797 72.837,23.797 C 70.621,23.797 70.227,25.023 70.519,26.553 L 71.453,31.503 L 72.466,31.503 L 71.51,26.508 C 71.285,25.293 71.633,24.652 72.983,24.652 C 74.277,24.652 75.019,25.214 75.323,26.8 L 76.223,31.503 L 77.213,31.503 L 76.302,26.688 z"
       id="path2795"
       style="fill:#000000;fill-opacity:1;fill-rule:nonzero;stroke:none" />
    <path
       d="M 82.219,23.909 L 81.229,23.909 L 81.916,27.487 C 82.085,28.364 81.927,28.747 81.421,28.747 C 80.386,28.747 79.238,26.553 78.979,25.169 L 78.743,23.909 L 77.753,23.909 L 78.316,26.834 C 78.462,27.633 78.664,28.679 78.811,29.5 L 79.789,29.5 C 79.722,29.129 79.564,28.488 79.171,27.295 L 79.193,27.295 C 79.722,28.477 80.611,29.613 81.781,29.613 C 82.816,29.613 83.164,28.881 82.951,27.712 L 82.219,23.909 z"
       id="path2797"
       style="fill:#000000;fill-opacity:1;fill-rule:nonzero;stroke:none" />
    <path
       d="M 86.022,30.423 C 85.65,30.423 85.381,30.715 85.403,31.064 C 85.414,31.447 85.741,31.739 86.112,31.739 C 86.472,31.739 86.753,31.458 86.731,31.109 C 86.708,30.727 86.382,30.423 86.022,30.423 M 85.189,23.909 L 84.199,23.909 L 85.268,29.5 L 86.258,29.5 L 85.189,23.909 z"
       id="path2799"
       style="fill:#000000;fill-opacity:1;fill-rule:nonzero;stroke:none" />
    <path
       d="M 89.43,23.909 L 88.395,23.909 L 87.405,29.5 L 88.474,29.5 L 88.992,26.215 C 89.048,25.866 89.093,25.473 89.115,25.135 L 89.127,25.135 L 91.489,29.737 L 92.423,29.41 L 89.43,23.909 z"
       id="path2801"
       style="fill:#000000;fill-opacity:1;fill-rule:nonzero;stroke:none" />
    <path
       d="M 95.55,28.837 C 94.661,28.837 94.065,28.06 93.806,27.115 C 95.539,27.183 96.304,27.531 96.304,28.206 C 96.304,28.612 96,28.837 95.55,28.837 M 93.683,26.373 C 93.649,26.204 93.626,25.923 93.626,25.72 C 93.626,24.854 93.93,24.629 94.83,24.629 C 95.359,24.629 95.921,24.753 96.405,24.955 L 96.405,24.145 C 95.865,23.931 95.213,23.808 94.481,23.808 C 93.199,23.808 92.603,24.359 92.603,25.619 C 92.603,27.79 93.806,29.602 95.663,29.602 C 96.855,29.602 97.305,28.994 97.305,28.33 C 97.305,27.127 96.079,26.463 93.683,26.373"
       id="path2803"
       style="fill:#000000;fill-opacity:1;fill-rule:nonzero;stroke:none" />
    <path
       d="M 101.738,28.623 C 100.702,28.915 99.6,26.722 99.307,25.169 L 99.071,23.909 L 98.081,23.909 L 99.139,29.5 L 100.106,29.5 C 100.016,29.016 99.859,28.42 99.532,27.441 L 99.555,27.43 C 100.185,28.791 100.86,29.782 101.94,29.602 L 101.738,28.623 z"
       id="path2805"
       style="fill:#000000;fill-opacity:1;fill-rule:nonzero;stroke:none" />
    <path
       d="M 105.484,28.702 C 105.214,28.791 104.921,28.837 104.64,28.837 C 103.909,28.837 103.526,28.488 103.526,28.015 C 103.526,27.127 105.225,26.89 105.225,25.63 C 105.225,24.697 104.404,23.808 102.817,23.808 C 102.446,23.808 102.142,23.83 101.861,23.887 L 102.041,24.787 C 102.334,24.697 102.638,24.64 102.952,24.64 C 103.684,24.64 104.179,24.933 104.179,25.518 C 104.179,26.406 102.491,26.553 102.491,27.903 C 102.491,28.859 103.256,29.602 104.708,29.602 C 105.101,29.602 105.383,29.568 105.664,29.523 L 105.484,28.702 z"
       id="path2807"
       style="fill:#000000;fill-opacity:1;fill-rule:nonzero;stroke:none" />
    <path
       d="M 108.341,30.423 C 107.97,30.423 107.7,30.715 107.722,31.064 C 107.734,31.447 108.06,31.739 108.431,31.739 C 108.791,31.739 109.072,31.458 109.05,31.109 C 109.027,30.727 108.701,30.423 108.341,30.423 M 107.509,23.909 L 106.519,23.909 L 107.588,29.5 L 108.577,29.5 L 107.509,23.909 z"
       id="path2809"
       style="fill:#000000;fill-opacity:1;fill-rule:nonzero;stroke:none" />
    <path
       d="M 113.133,28.713 L 111.615,28.713 L 111.064,25.788 C 110.906,24.922 111.019,24.685 111.57,24.685 C 111.885,24.685 112.121,24.719 112.346,24.775 L 112.278,23.931 C 111.952,23.864 111.558,23.819 111.232,23.819 C 110.085,23.819 109.792,24.359 110.028,25.63 L 110.625,28.713 L 109.489,28.713 L 109.646,29.5 L 110.771,29.5 L 111.12,31.312 L 112.166,31.548 L 111.772,29.5 L 113.291,29.5 L 113.133,28.713 z"
       id="path2811"
       style="fill:#000000;fill-opacity:1;fill-rule:nonzero;stroke:none" />
    <path
       d="M 114.731,22.064 C 114.067,21.389 113.37,21.052 112.706,21.052 C 112.425,21.052 112.144,21.074 111.919,21.13 L 112.087,22.041 C 112.312,21.963 112.549,21.929 112.796,21.929 C 113.19,21.929 113.651,22.165 114.034,22.57 C 114.472,23.043 114.664,23.549 114.664,24.359 C 114.664,25.844 114.348,27.689 113.842,29.5 L 114.967,29.5 C 115.339,28.049 115.597,26.305 115.597,25.113 C 115.597,24.91 115.564,24.64 115.519,24.415 L 115.53,24.415 C 116.419,25.979 117.184,27.577 118.061,29.726 L 119.006,29.444 C 117.532,25.99 116.115,23.47 114.731,22.064"
       id="path2813"
       style="fill:#000000;fill-opacity:1;fill-rule:nonzero;stroke:none" />
    <path
       d="M 124.923,28.747 C 123.697,28.747 122.876,27.374 122.876,25.968 C 122.876,25.135 123.213,24.674 124.057,24.674 C 125.148,24.674 126.105,25.844 126.105,27.475 C 126.105,28.297 125.733,28.747 124.923,28.747 M 123.888,23.808 C 122.482,23.808 121.841,24.516 121.841,25.799 C 121.841,28.027 123.258,29.602 125.081,29.602 C 126.555,29.602 127.162,28.769 127.162,27.588 C 127.162,25.281 125.576,23.808 123.888,23.808"
       id="path2815"
       style="fill:#000000;fill-opacity:1;fill-rule:nonzero;stroke:none" />
    <path
       d="M 132.629,31.255 C 132.382,31.323 132.078,31.368 131.842,31.368 C 131.032,31.368 130.582,30.94 130.402,29.883 L 130.334,29.5 L 131.853,29.5 L 131.684,28.713 L 130.177,28.713 L 129.209,23.628 C 128.86,21.794 128.005,21.052 126.644,21.052 C 126.318,21.052 125.98,21.085 125.677,21.153 L 125.924,22.008 C 126.183,21.929 126.487,21.895 126.712,21.895 C 127.51,21.895 127.96,22.3 128.208,23.605 L 129.187,28.713 L 128.05,28.713 L 128.219,29.5 L 129.333,29.5 L 129.412,29.894 C 129.682,31.424 130.492,32.189 131.943,32.189 C 132.258,32.189 132.562,32.155 132.877,32.088 L 132.629,31.255 z"
       id="path2817"
       style="fill:#000000;fill-opacity:1;fill-rule:nonzero;stroke:none" />
    <path
       d="M 138.333,29.219 C 138.265,29.579 138.22,29.973 138.198,30.344 L 138.175,30.344 C 138.029,29.995 137.838,29.602 137.624,29.208 L 136.162,26.508 L 138.783,26.508 L 138.333,29.219 z M 139.176,23.909 L 138.906,25.687 L 135.734,25.687 L 134.778,23.909 L 133.698,23.909 L 137.86,31.503 L 138.985,31.503 L 140.268,23.909 L 139.176,23.909 z"
       id="path2819"
       style="fill:#000000;fill-opacity:1;fill-rule:nonzero;stroke:none" />
    <path
       d="M 145.139,28.747 C 144.081,28.747 142.945,26.508 142.686,25.191 L 142.596,24.764 C 142.833,24.685 143.17,24.629 143.406,24.629 C 145.049,24.629 145.712,26.339 145.712,27.723 C 145.712,28.454 145.487,28.747 145.139,28.747 M 143.215,23.83 C 142.934,23.83 142.686,23.853 142.428,23.898 L 141.91,21.13 L 140.92,21.13 L 142.506,29.5 L 143.496,29.5 C 143.395,29.016 143.249,28.465 142.866,27.262 L 142.889,27.25 C 143.462,28.566 144.34,29.613 145.487,29.613 C 146.298,29.613 146.736,29.095 146.736,27.914 C 146.736,25.855 145.668,23.83 143.215,23.83"
       id="path2821"
       style="fill:#000000;fill-opacity:1;fill-rule:nonzero;stroke:none" />
    <path
       d="M 151.304,28.747 C 150.246,28.747 149.11,26.508 148.852,25.191 L 148.761,24.764 C 148.998,24.685 149.335,24.629 149.571,24.629 C 151.214,24.629 151.878,26.339 151.878,27.723 C 151.878,28.454 151.653,28.747 151.304,28.747 M 149.38,23.83 C 149.099,23.83 148.852,23.853 148.593,23.898 L 148.075,21.13 L 147.085,21.13 L 148.671,29.5 L 149.661,29.5 C 149.56,29.016 149.414,28.465 149.031,27.262 L 149.054,27.25 C 149.628,28.566 150.505,29.613 151.653,29.613 C 152.463,29.613 152.901,29.095 152.901,27.914 C 152.901,25.855 151.833,23.83 149.38,23.83"
       id="path2823"
       style="fill:#000000;fill-opacity:1;fill-rule:nonzero;stroke:none" />
    <path
       d="M 154.769,23.909 L 153.779,23.909 L 155.342,32.122 L 156.333,32.122 L 154.769,23.909 z"
       id="path2825"
       style="fill:#000000;fill-opacity:1;fill-rule:nonzero;stroke:none" />
    <path
       d="M 158.571,30.423 C 158.2,30.423 157.93,30.715 157.952,31.064 C 157.964,31.447 158.29,31.739 158.662,31.739 C 159.021,31.739 159.302,31.458 159.28,31.109 C 159.258,30.727 158.931,30.423 158.571,30.423 M 157.739,23.909 L 156.749,23.909 L 157.818,29.5 L 158.808,29.5 L 157.739,23.909 z"
       id="path2827"
       style="fill:#000000;fill-opacity:1;fill-rule:nonzero;stroke:none" />
    <path
       d="M 162.666,28.837 C 161.777,28.837 161.181,28.06 160.923,27.115 C 162.655,27.183 163.42,27.531 163.42,28.206 C 163.42,28.612 163.116,28.837 162.666,28.837 M 160.799,26.373 C 160.765,26.204 160.742,25.923 160.742,25.72 C 160.742,24.854 161.046,24.629 161.946,24.629 C 162.475,24.629 163.037,24.753 163.521,24.955 L 163.521,24.145 C 162.981,23.931 162.329,23.808 161.598,23.808 C 160.315,23.808 159.719,24.359 159.719,25.619 C 159.719,27.79 160.923,29.602 162.779,29.602 C 163.971,29.602 164.421,28.994 164.421,28.33 C 164.421,27.127 163.195,26.463 160.799,26.373"
       id="path2829"
       style="fill:#000000;fill-opacity:1;fill-rule:nonzero;stroke:none" />
    <path
       d="M 168.505,28.791 C 166.84,28.791 166.188,27.07 166.188,25.687 C 166.188,24.955 166.413,24.663 166.761,24.663 C 167.819,24.663 168.966,26.902 169.225,28.24 L 169.304,28.69 C 169.079,28.747 168.82,28.791 168.505,28.791 M 169.765,25.923 C 169.619,25.147 169.473,24.37 169.394,23.909 L 168.404,23.909 C 168.494,24.393 168.708,25.135 169.045,26.181 L 169.023,26.193 C 168.617,25.327 167.774,23.797 166.413,23.797 C 165.602,23.797 165.164,24.314 165.164,25.495 C 165.164,27.554 166.233,29.59 168.674,29.59 C 168.955,29.59 169.18,29.568 169.461,29.523 L 169.945,32.122 L 170.946,32.122 L 169.765,25.923 z"
       id="path2831"
       style="fill:#000000;fill-opacity:1;fill-rule:nonzero;stroke:none" />
    <path
       d="M 178.337,30.58 C 177.966,30.715 177.561,30.76 177.28,30.76 C 176.155,30.76 175.649,30.119 175.649,29.512 C 175.649,28.139 177.966,28.094 177.966,26.294 C 177.966,24.888 176.728,23.797 174.962,23.797 C 174.557,23.797 174.085,23.841 173.713,23.954 L 173.905,24.944 C 174.22,24.809 174.67,24.708 175.052,24.708 C 176.222,24.708 176.886,25.281 176.886,26.125 C 176.886,27.441 174.58,27.453 174.58,29.275 C 174.58,30.524 175.559,31.615 177.381,31.615 C 177.763,31.615 178.101,31.593 178.528,31.503 L 178.337,30.58 z"
       id="path2833"
       style="fill:#000000;fill-opacity:1;fill-rule:nonzero;stroke:none" />
    <path
       d="M 183.287,28.544 C 182.983,28.679 182.657,28.758 182.263,28.758 C 180.846,28.758 180.182,27.16 180.182,25.889 C 180.182,25.304 180.373,24.708 181.352,24.708 C 181.791,24.708 182.263,24.809 182.612,24.978 L 182.545,24.089 C 182.151,23.943 181.633,23.819 181.071,23.819 C 179.62,23.819 179.125,24.606 179.125,25.664 C 179.125,27.802 180.328,29.59 182.331,29.59 C 182.792,29.59 183.163,29.523 183.512,29.422 L 183.287,28.544 z"
       id="path2835"
       style="fill:#000000;fill-opacity:1;fill-rule:nonzero;stroke:none" />
    <path
       d="M 185.717,30.423 C 185.346,30.423 185.076,30.715 185.098,31.064 C 185.11,31.447 185.436,31.739 185.807,31.739 C 186.167,31.739 186.448,31.458 186.426,31.109 C 186.403,30.727 186.077,30.423 185.717,30.423 M 184.885,23.909 L 183.895,23.909 L 184.963,29.5 L 185.953,29.5 L 184.885,23.909 z"
       id="path2837"
       style="fill:#000000;fill-opacity:1;fill-rule:nonzero;stroke:none" />
    <path
       d="M 189.812,28.837 C 188.923,28.837 188.327,28.06 188.068,27.115 C 189.8,27.183 190.565,27.531 190.565,28.206 C 190.565,28.612 190.262,28.837 189.812,28.837 M 187.944,26.373 C 187.911,26.204 187.888,25.923 187.888,25.72 C 187.888,24.854 188.192,24.629 189.092,24.629 C 189.621,24.629 190.183,24.753 190.667,24.955 L 190.667,24.145 C 190.127,23.931 189.474,23.808 188.743,23.808 C 187.461,23.808 186.864,24.359 186.864,25.619 C 186.864,27.79 188.068,29.602 189.924,29.602 C 191.117,29.602 191.567,28.994 191.567,28.33 C 191.567,27.127 190.34,26.463 187.944,26.373"
       id="path2839"
       style="fill:#000000;fill-opacity:1;fill-rule:nonzero;stroke:none" />
    <path
       d="M 196.809,23.909 L 195.819,23.909 L 196.506,27.487 C 196.674,28.364 196.517,28.747 196.01,28.747 C 194.975,28.747 193.828,26.553 193.569,25.169 L 193.333,23.909 L 192.343,23.909 L 192.906,26.834 C 193.052,27.633 193.254,28.679 193.4,29.5 L 194.379,29.5 C 194.312,29.129 194.154,28.488 193.76,27.295 L 193.783,27.295 C 194.312,28.477 195.2,29.613 196.371,29.613 C 197.406,29.613 197.754,28.881 197.54,27.712 L 196.809,23.909 z"
       id="path2841"
       style="fill:#000000;fill-opacity:1;fill-rule:nonzero;stroke:none" />
    <path
       d="M 202.93,28.544 C 202.625,28.679 202.299,28.758 201.906,28.758 C 200.488,28.758 199.824,27.16 199.824,25.889 C 199.824,25.304 200.015,24.708 200.994,24.708 C 201.433,24.708 201.906,24.809 202.255,24.978 L 202.187,24.089 C 201.793,23.943 201.275,23.819 200.713,23.819 C 199.262,23.819 198.767,24.606 198.767,25.664 C 198.767,27.802 199.971,29.59 201.973,29.59 C 202.434,29.59 202.806,29.523 203.154,29.422 L 202.93,28.544 z"
       id="path2843"
       style="fill:#000000;fill-opacity:1;fill-rule:nonzero;stroke:none" />
    <path
       d="M 206.495,28.837 C 205.607,28.837 205.01,28.06 204.751,27.115 C 206.484,27.183 207.249,27.531 207.249,28.206 C 207.249,28.612 206.945,28.837 206.495,28.837 M 204.628,26.373 C 204.594,26.204 204.571,25.923 204.571,25.72 C 204.571,24.854 204.875,24.629 205.775,24.629 C 206.304,24.629 206.867,24.753 207.35,24.955 L 207.35,24.145 C 206.81,23.931 206.158,23.808 205.426,23.808 C 204.144,23.808 203.548,24.359 203.548,25.619 C 203.548,27.79 204.751,29.602 206.608,29.602 C 207.8,29.602 208.25,28.994 208.25,28.33 C 208.25,27.127 207.024,26.463 204.628,26.373"
       id="path2845"
       style="fill:#000000;fill-opacity:1;fill-rule:nonzero;stroke:none" />
    <path
       d="M 212.39,28.702 C 212.12,28.791 211.828,28.837 211.546,28.837 C 210.815,28.837 210.433,28.488 210.433,28.015 C 210.433,27.127 212.131,26.89 212.131,25.63 C 212.131,24.697 211.31,23.808 209.724,23.808 C 209.353,23.808 209.049,23.83 208.768,23.887 L 208.948,24.787 C 209.24,24.697 209.544,24.64 209.859,24.64 C 210.59,24.64 211.085,24.933 211.085,25.518 C 211.085,26.406 209.398,26.553 209.398,27.903 C 209.398,28.859 210.162,29.602 211.614,29.602 C 212.008,29.602 212.289,29.568 212.57,29.523 L 212.39,28.702 z"
       id="path2847"
       style="fill:#000000;fill-opacity:1;fill-rule:nonzero;stroke:none" />
  </g>
</svg>
